<svg viewBox="0 0 99 26" xmlns="http://www.w3.org/2000/svg"><path d="M24.598 25.929c-1.726-.253-3.236-.986-4.388-2.132-.962-.956-1.585-2.007-2.045-3.448-.717-2.25-.718-5.14 0-7.344.694-2.135 2.26-3.994 4.174-4.959 2.652-1.336 6.385-1.252 8.84.199 2.211 1.306 3.55 3.627 3.923 6.797.113.968.04 3.013-.14 3.857-.733 3.455-2.868 5.868-5.997 6.778-.337.098-.86.213-1.161.255-.64.089-2.588.087-3.206-.003zm1.034-1.282c.471.214 1.334.202 1.821-.026 1.345-.628 2.065-2.436 2.3-5.77.328-4.647-.431-8.525-1.935-9.89-.677-.613-1.73-.814-2.49-.475-1.109.496-1.82 1.964-2.158 4.447-.24 1.77-.215 5.38.049 7.002.415 2.561 1.244 4.18 2.413 4.712zm29.533 1.28c-.706-.071-2.864-.432-3.617-.604l-.522-.119.04-2.795c.099-6.73.111-10.404.048-13.977-.062-3.5-.08-3.87-.215-4.388-.17-.656-.416-1.113-.712-1.325-.115-.082-.427-.198-.694-.258-.886-.2-.838-.168-.861-.574-.014-.234.011-.388.07-.436.08-.063 7.35-1.455 7.581-1.451.067.001.076.934.042 4.145-.024 2.28-.027 4.144-.007 4.144s.286-.115.59-.256c.917-.426 1.763-.61 2.99-.653.818-.029 1.196-.01 1.616.076 2.741.57 4.77 2.823 5.48 6.085.184.85.253 2.966.13 4.025-.104.903-.403 2.12-.714 2.909-1.172 2.979-3.688 4.922-7.026 5.427-.769.117-3.183.131-4.219.026zm1.482-1.256c.643.068 1.364.044 1.7-.056.523-.156 1.19-.632 1.592-1.135.828-1.038 1.424-2.645 1.751-4.727.157-.997.178-3.798.035-4.605-.44-2.476-1.285-3.99-2.573-4.602-.641-.305-1.545-.343-2.385-.1l-.57.165-.064 2.25c-.082 2.838.05 12.537.172 12.685.045.053.199.11.342.125zm18.98 1.221c-3.53-.639-6.056-3.152-6.88-6.85-.107-.475-.154-1.007-.18-2.036-.043-1.628.09-2.64.508-3.895.804-2.411 2.244-4.12 4.337-5.144 2.209-1.081 5.229-1.152 7.183-.169 2.201 1.107 3.496 3.318 3.825 6.529.044.432.07.946.056 1.143l-.023.357-5.267.018-5.267.019.02.624c.047 1.448.357 2.727.93 3.84.26.506.468.782.972 1.293 1.138 1.153 2.27 1.6 4.057 1.6 1.295 0 2.227-.26 3.2-.892.273-.177.55-.322.615-.322.149 0 .49.443.49.635 0 .315-1.02 1.33-2.016 2.005-.816.554-2.11 1.054-3.231 1.251-.786.138-2.551.135-3.328-.006zm-1.84-11.441c.04.063 3.23.02 4.716-.062l.74-.042-.043-1.117c-.087-2.265-.528-3.794-1.297-4.507-.287-.265-.673-.432-1-.433-.08 0-.319.05-.53.114-.306.09-.477.21-.853.589-.698.706-1.205 1.853-1.522 3.44-.131.66-.264 1.93-.21 2.018zm16.075 11.51c-1.268-.136-3.286-.58-3.958-.87l-.328-.14-.045-1.633c-.024-.898-.053-2.098-.063-2.667l-.018-1.035.197-.095c.108-.052.326-.1.485-.108l.288-.014.246.608c.959 2.369 2.084 3.646 3.552 4.035.56.148 1.611.15 2.026.002 1.162-.411 1.8-1.295 1.805-2.501.007-1.429-.776-2.116-3.732-3.275-1.831-.718-2.47-1.087-3.23-1.869-.821-.843-1.215-1.803-1.289-3.14-.09-1.615.414-2.976 1.53-4.136 1.123-1.168 2.581-1.801 4.567-1.983 1.749-.16 4.433.212 5.84.81l.256.11.046 1.454c.025.8.05 1.873.058 2.383l.012.93-.345.128c-.545.203-.58.177-.884-.629-.85-2.26-1.836-3.328-3.374-3.655-.937-.199-1.72.015-2.29.626-.443.476-.616.9-.658 1.61-.046.77.091 1.186.56 1.7.577.635 1.523 1.182 3.408 1.973 2.308.968 3.41 1.79 4.009 2.992.389.78.499 1.403.46 2.603-.03.9-.058 1.085-.262 1.69-.666 1.97-2.167 3.267-4.487 3.876-.786.206-.898.216-2.46.233-.9.01-1.765.005-1.922-.012zM.095 25.533c-.06-.024-.09-.202-.09-.531 0-.592-.037-.566 1.104-.778.875-.163 1.188-.33 1.574-.838.75-.986.911-2.885.913-10.702.001-7.34-.14-8.885-.914-10.02-.344-.503-.923-.776-1.893-.893L.04 1.68l-.02-.585L0 .509.234.467C.363.444 4.887.434 10.288.446l9.82.02.046.286c.026.157.067 1.77.093 3.583l.046 3.297-.506.154c-.763.232-.758.235-1.1-.676-.843-2.236-1.809-3.525-3.13-4.176-.911-.449-1.333-.503-3.906-.503H9.41l-.039.375c-.072.703-.187 5.228-.186 7.359l.001 2.125.658-.003a36.445 36.445 0 001.587-.06c.768-.046.996-.087 1.317-.236.789-.367 1.326-1.174 1.654-2.487l.17-.679.581-.02.581-.021v8.585l-.581-.02-.581-.022-.165-.678c-.31-1.276-.907-2.189-1.644-2.516-.34-.151-1.182-.237-2.812-.287l-.765-.023v1.613c0 1.757.096 4.134.22 5.425.172 1.798.63 2.792 1.452 3.152.157.069.654.18 1.104.248.45.068.874.152.943.187.174.09.184 1.022.012 1.088-.135.052-12.695.048-12.823-.004zm35.085-.013c-.065-.042-.086-.206-.072-.553l.022-.494.249-.053c.137-.03.431-.087.654-.13.689-.128 1.085-.504 1.308-1.24.181-.599.261-2.515.266-6.365.005-4.707-.093-5.819-.567-6.45-.257-.34-.442-.438-1.066-.558a77.39 77.39 0 01-.72-.141c-.142-.03-.16-.077-.16-.427 0-.34.022-.402.16-.46.213-.087 7.264-1.502 7.49-1.502h.175L42.885 8.2c-.02.58-.05 1.424-.068 1.876l-.033.821.256-.462c.818-1.48 1.735-2.4 2.954-2.96.67-.308 1.116-.4 1.943-.4.98 0 1.961.321 1.961.642 0 .216-1.728 4.8-1.823 4.837-.046.018-.384-.112-.75-.288-.763-.368-1.479-.548-2.174-.546-.865.002-1.832.322-2.214.733-.163.175-.164.186-.204 2.811-.04 2.6.046 5.77.192 7.046.124 1.087.411 1.621 1.005 1.87.198.084 1.452.256 1.861.256.031 0 .047.25.036.554l-.021.554-5.267.017c-2.897.01-5.308-.01-5.36-.042z" fill="#8B9AA3"/></svg>