<svg viewBox="0 0 130 24" xmlns="http://www.w3.org/2000/svg"><path d="M17.07 1l-2.386 7.645a134.94 134.94 0 00-2.15 8.257h-.135a96.188 96.188 0 00-1.915-8.19L8.266 1H1.445L0 24h4.738l.437-8.736c.133-2.866.268-6.415.37-9.52h.066c.572 3.036 1.31 6.278 2.05 9.008l2.42 8.873h3.998l2.756-8.975a146.408 146.408 0 002.553-8.906h.067c0 3.378.102 6.688.202 9.452l.37 8.804H25L23.79 1h-6.72zm10.105 7.464l.94 3.227c1.073-.632 2.851-1.197 4.53-1.197 2.516 0 2.986 1.23 2.986 2.095v.2c-5.805 0-9.631 1.996-9.631 6.222C26 21.605 27.98 24 31.302 24c1.946 0 3.624-.699 4.698-1.995h.1l.303 1.63H41c-.202-.899-.269-2.396-.269-3.926v-5.69c0-3.825-1.711-7.019-7.18-7.019-2.987 0-5.236.832-6.376 1.464m3.859 10.047c0-1.93 2.08-2.561 4.764-2.561v1.762c0 .3-.033.6-.1.865-.335 1.032-1.41 1.864-2.651 1.864-1.141 0-2.013-.633-2.013-1.93m12.356-6.155c-.032 1.897 1.236 3.76 4.553 4.857 1.821.633 2.31 1.032 2.31 1.897 0 .832-.619 1.33-2.114 1.33-1.464 0-3.35-.632-4.261-1.197L43 22.835c1.203.666 3.057 1.165 5.139 1.165C52.691 24 55 21.77 55 18.71c-.032-2.362-1.268-3.958-4.293-4.99-1.95-.698-2.568-1.097-2.568-1.895 0-.8.682-1.299 1.886-1.299 1.333 0 2.732.533 3.447.899l.845-3.46C53.342 7.466 51.716 7 49.862 7c-3.935 0-6.472 2.296-6.472 5.356M56 0v24h5.24v-9.803c0-.372.036-.811.173-1.115.38-.947 1.242-1.826 2.621-1.826 1.966 0 2.724 1.488 2.724 3.651V24H72v-9.634C72 9.364 69.448 7.1 66.103 7.1c-.965 0-1.93.237-2.724.642a5.62 5.62 0 00-2.068 1.724h-.07V0H56zm18.174 8.464l.94 3.227c1.073-.632 2.852-1.197 4.53-1.197 2.517 0 2.987 1.23 2.987 2.095v.2c-5.806 0-9.631 1.996-9.631 6.222C73 21.605 74.98 24 78.301 24c1.947 0 3.625-.699 4.699-1.995h.101l.302 1.63H88c-.2-.899-.269-2.396-.269-3.926v-5.69c0-3.825-1.71-7.019-7.18-7.019-2.987 0-5.236.832-6.377 1.464m3.86 10.047c0-1.93 2.08-2.561 4.765-2.561v1.762c0 .3-.034.6-.1.865-.337 1.032-1.41 1.864-2.652 1.864-1.14 0-2.013-.633-2.013-1.93M89.134 0v18.774c0 1.832-.067 3.795-.134 4.86h4.325l.201-2.263h.067c1.14 1.93 3.018 2.629 4.93 2.629 3.755 0 7.477-2.93 7.477-8.787.033-4.993-2.817-8.223-6.74-8.223-2.28 0-3.99.9-4.962 2.298h-.068V0h-5.096zm5.197 17.608a3.659 3.659 0 01-.1-.897v-2.397c0-.333.032-.633.1-.932.335-1.465 1.61-2.497 2.984-2.497 2.381 0 3.521 1.997 3.521 4.527 0 2.93-1.34 4.594-3.52 4.594-1.476 0-2.65-1.065-2.985-2.398zM107 24h5V0h-5zm7-8.318c0 5.123 3.27 8.318 8.98 8.318 2.272 0 4.371-.333 6.092-1.031l-.69-3.427c-1.41.466-2.855.698-4.645.698-2.443 0-4.575-.998-4.747-3.127l10.838.034c.069-.4.172-1.164.172-2.03C130 11.092 127.936 7 122.5 7c-5.816 0-8.5 4.558-8.5 8.682m8.223-5.322c2.375 0 2.925 2.096 2.925 3.294h-6.192c.137-1.33 1.031-3.294 3.267-3.294" fill="#84909C"/></svg>