<svg viewBox="0 0 231 34" xmlns="http://www.w3.org/2000/svg"><g fill="#84909C" fill-rule="evenodd"><path d="M14.651.03c.664.06 1.705.397 2.49 1.105.832.833 1.022 2.098.73 3.248-.259 1.024-.55 1.556-1.565 2.264-1.025.713-2.265.653-2.265.653v4.438l2.096 1.747-2.097 1.742v6.046s2.1-1.24 3.403-4.016c0 0 .054-.152.176-.437.116.743.05 2.249-.767 4.182-.615 1.456-1.735 2.857-3.139 3.655-2.488 1.42-4.353 1.557-6.354 1.13-2.342-.497-4.47-1.853-5.921-4.218-1.02-1.662-1.477-3.6-1.435-5.684C.085 11.793 3.04 8.264 6.45 6.95c.416-.161.581-.266 1.17-.322-.271.191-.585.437-.97.698-1.099.743-2.04 2.224-2.442 3.364l6.62-3.043v9.535L5.49 19.938c.608.868 2.457 2.184 4.038 2.37 2.69.306 4.268-.904 4.268-.904v-6.177l-2.085-1.742 2.085-1.742V7.3c-1.136-.136-2.518-.522-3.325-.728-1.187-.301-5.146-1.446-5.769-1.541-.621-.096-1.389-.066-1.853.361-.464.432-.752 1.19-.554 1.873.112.386.37.613.565.833 0 0-.228-.02-.643-.276C1.47 7.36.902 6.456.833 5.342c-.088-1.46.496-2.777 1.666-3.66C3.515 1.01 4.664.577 6 .773c1.95.286 4.571 1.421 6.906 1.998.905.226 1.605.302 2.241-.08.296-.22.817-.788.391-1.541-.497-.884-1.45-.864-2.257-1.02.695-.15.847-.15 1.37-.1M6.778 18.988V9.78L4.09 11.015s-.685 1.582-.565 3.876c.094 1.793 1.067 3.937 1.814 4.836l1.44-.739M38.424 8s-1.93 1.24-3.227 2.06c-1.297.817-3.037 1.717-3.037 1.717v8.608l-1.16.989.154.191 1.132-.968L35.834 24 42 18.816l-.146-.187-3.408 2.838-2.8-2.784v-1.037l5.626-4.393L38.424 8zm.082 7.107l-2.86 2.224V9.933l2.86 5.174zM22.97 27.852c.801.21 2.215.327 3.92-.58 1.887-1.001 2.836-3.127 2.823-5.307l.08-3.09v-6.748L31 11.149l-.14-.19-1.188.95-2.74-3.232-3.516 3.202V1l-4.393 3.6c.196.132.818.253.837 1.183V21.02L18 22.486l.127.204.898-.71 2.502 2.466 3.937-3.322-.142-.19-.926.778-.98-1.031.01-8.49 1.147-1.037 1.71 2.252s-.003 5.499.002 7.324c-.013 1.945-.019 4.373-.983 5.545-.964 1.179-1.35 1.271-2.332 1.577m28.411.073c-1.586-.195-2.252-1.229-2.234-2.045.012-.522.453-1.547 1.418-1.686.963-.145 1.949.343 2.78 1.392l3.664-4.352-.177-.17-.984 1.185a6.288 6.288 0 00-3.83-2.218V6.77l9.514 18.638s.092.213.483.213c.336 0 .255-.294.255-.294V6.571c.773-.035 1.953-.493 2.526-1.124 1.833-2.025 1.084-4.233.883-4.447-.112.965-.802 1.935-1.954 1.94-1.511.005-2.432-1.194-2.432-1.194l-3.66 4.486.174.17 1.049-1.288c1.28 1.268 2.216 1.387 3.183 1.457l-.001 10.883L54.98 3.666c-.638-1.139-1.612-2.139-3.137-2.154-1.753-.01-3.008 1.652-3.158 3.084-.17 1.617.018 1.99.018 1.99s.258-1.8 1.294-1.786c.93.015 1.415.935 1.788 1.627v3.994c-.96.07-3.458.189-3.61 2.984-.012 1.04.588 2.129 1.114 2.497.677.477 1.204.468 1.204.468s-.81-.463-.567-1.378c.217-.821 1.803-.955 1.86-.612v5.635c-.763-.01-3.208.08-4.31 2.334-.665 1.362-.626 2.885.084 3.959.58.875 1.771 1.994 3.822 1.617M72.424 8s-1.93 1.24-3.227 2.06c-1.297.817-3.036 1.717-3.036 1.717v8.608L65 21.374l.154.191 1.132-.968L69.834 24 76 18.816l-.146-.187-3.407 2.838-2.802-2.784v-1.037l5.627-4.393L72.424 8zm.082 7.107l-2.861 2.224V9.933l2.861 5.174z"/><path d="M79.842 24.98l-3.13-2.64-1.375 1.013-.14-.2 1.4-1.038v-7.383c.067-3.04-2.743-2.285-2.591-5.51.067-1.419 1.419-2.491 2.1-2.847C76.838 6 77.629 6 77.629 6s-1.282.814-.97 1.983c.479 1.803 3.514 1.964 3.571 4.366v8.378l2.242 1.822.59-.468v-9.069l-1.21-1.218 3.112-2.797 2.843 2.558-1.085 1.194v8.036l2.663 2.232.473-.308v-9.672l-1.21-1.15 3.117-2.895 2.915 2.446 1.164-1.047.157.185-2.62 2.339v7.884L86.674 25l-3.43-2.758-3.402 2.739M215.424 8s-1.93 1.24-3.226 2.06c-1.298.817-3.037 1.717-3.037 1.717v8.608l-1.161.989.155.191 1.132-.968L212.835 24 219 18.816l-.146-.187-3.407 2.838-2.802-2.784v-1.037l5.627-4.393L215.424 8zm.082 7.107l-2.86 2.224V9.933l2.86 5.174z"/><path d="M187 11.594l.157.188 1.204-1.068 1.789 2.082v7.15l-.869.815L192.068 24l2.86-2.898-1.175-1.25v-8.648l.711-.584 1.977 2.374v7.13l-.743.761 2.624 3.036 2.807-2.888-1.032-1.113-.026-8.681.758-.633 2.062 2.333v7.091l-.679.696 2.898 3.249 3.89-3.693-.165-.183-.945.895-1.449-1.652v-8.094l1.4-1.092-.146-.198-1.4 1.093L203.647 8l-3.785 3.075-2.651-2.966-3.656 2.942-2.675-2.927zM176.651.03c.664.06 1.705.397 2.49 1.105.833.833 1.022 2.098.73 3.248-.26 1.024-.55 1.556-1.566 2.264-1.024.713-2.265.653-2.265.653v4.438l2.097 1.747-2.097 1.742v6.046s2.1-1.24 3.403-4.016c0 0 .054-.152.176-.437.115.743.05 2.249-.767 4.182-.616 1.456-1.736 2.857-3.14 3.655-2.487 1.42-4.353 1.557-6.353 1.13-2.342-.497-4.469-1.853-5.921-4.218-1.02-1.662-1.478-3.6-1.435-5.684.081-4.092 3.036-7.621 6.448-8.936.414-.161.58-.266 1.17-.322-.273.191-.587.437-.971.698-1.099.743-2.04 2.224-2.442 3.364l6.62-3.043v9.535l-5.338 2.757c.609.868 2.456 2.184 4.038 2.37 2.69.306 4.268-.904 4.268-.904v-6.177l-2.084-1.742 2.084-1.742V7.3c-1.137-.136-2.518-.522-3.325-.728-1.188-.301-5.147-1.446-5.769-1.541-.622-.096-1.39-.066-1.853.361-.465.432-.752 1.19-.555 1.873.112.386.37.613.566.833 0 0-.23-.02-.643-.276-.748-.462-1.317-1.366-1.385-2.48-.087-1.46.496-2.777 1.666-3.66 1.017-.673 2.166-1.105 3.503-.909 1.95.286 4.57 1.421 6.906 1.998.905.226 1.605.302 2.24-.08.297-.22.818-.788.392-1.541-.497-.884-1.45-.864-2.257-1.02.695-.15.847-.15 1.37-.1m-7.872 18.958V9.78l-2.689 1.235s-.685 1.582-.566 3.876c.095 1.793 1.068 3.937 1.815 4.836l1.44-.739"/><path d="M178 13.398l3.976-3.302 2.919 3.238 1.327-1.088.17.188-1.399 1.152v7.99l1.658 1.819 1.18-.989.169.188L183.992 26l-2.773-3.045-1.274 1.033-.169-.188 1.213-1.009V14.62l-1.72-1.938-1.099.905-.17-.188zm1.155-6.768L182.173 4l2.454 2.59-3.031 2.62-2.44-2.58zm43.755 19.35c-.442.128-2.363-.33-2.824-2.282-.448-1.905.898-3.193 2.933-5.22l-2.402-2.155v-4.112s1.765-.866 3.148-1.712c1.383-.851 2.798-1.771 2.798-1.771s1.032 1.279 2.198 1.176c1.826-.158 1.742-1.57 1.689-1.904.311.546 1.145 2.17-2.063 5.8L231 15.87v5.343s-3.036 1.55-5.906 3.606c0 0-1.603-1.968-2.994-1.028-.94.634-.51 1.706.81 2.19m-2.258-4.119s1.379-2.238 3.748-1.756c2.273.463 3.061 2.82 3.061 2.82v-5.427l-1.585-1.353c-1.741 1.717-4.84 4.201-5.224 5.716m3.516-11.334v4.275l1.45 1.24s3.15-2.475 4.293-4.767c0 0-1.415 1.884-3.32 1.308-1.596-.477-2.423-2.056-2.423-2.056m-93.391 1.073l1.07-1.057.153.186-1.041 1.037v8.45s-1.979 1.127-3.36 1.963c-1.38.837-2.854 1.82-2.854 1.82l-3.63-3.283-.96.896-.155-.187 1.01-.944v-9.086h.012s1.713-.832 3.157-1.708A253.87 253.87 0 00126.916 8l3.86 3.601zm-6.324 7.447l3.067 2.98v-9.12l-3.067-3.049v9.19zm13.849-8.362l2.522-2.553s.348.301.672.46c.185.088.948.478 1.649.098.38-.207.434-.262.85-.652.085 1.985-.877 3.382-2.077 3.96-.492.237-1.926.691-3.428-1.121v9.173l1.597 1.397 1.333-1.091.154.193L137.4 24l-3.176-2.862-1.143 1.065-.187-.197 1.74-1.555.015-7.92-1.335-1.752-1.147 1.003-.167-.183L136.044 8l2.258 2.686M148 14.654l4.475-6.639s.59.712 1.618.99c1.398.37 2.618-1.005 2.618-1.005-.233 1.776-1.116 3.79-2.938 4.098-1.606.273-3.1-1-3.1-1l-.29.458 6.214 9.571 1.242-1.112.161.185-4.264 3.8L148 14.654"/><path d="M143.663 6.75c0-1.434-.514-2.317-1.187-2.253L146.838 1v19.791h.001l1.151 1.385.873-.863.137.185L145.485 25l-2.38-2.551-.954.956-.151-.185 1.663-1.653V6.75m-39.251-.256c0-1.362-.519-2.122-1.36-2.143-1.21-.03-1.497 1.79-1.497 1.79s-.22-1.402.88-2.675c.62-.71 1.775-1.71 3.58-1.247 1.865.482 2.395 2.023 2.395 3.385V24.37a14.14 14.14 0 002.28.488V2.229h.23v3.052L114.745 2l2.801 2.655 1.307-1.203.148.189-1.365 1.252v17.45c-.068 1.138-.24 2.295-1.248 2.962-2.25 1.422-4.964-.218-7.382-.591-1.794-.284-4.612-.646-5.319 1.108-.23.576-.215 1.466.6 2.048 1.633 1.164 8.907-1.954 11.402-.716 2.275 1.128 2.266 2.914 1.915 4.141-.591 2.302-3.318 2.705-3.318 2.705s1.334-.826.954-2.193c-.193-.69-.633-.885-2.06-.716-3.119.378-6.846 1.988-9.35.87-1.29-.571-2.203-2.291-2.115-3.981.064-2.431 2.698-3.39 2.698-3.39v-8.994c-.076-.358-1.481-.264-1.788.398-.468 1 .58 1.457.58 1.457s-.868.139-1.597-.756c-.354-.438-1.095-1.969-.132-3.385.792-1.169 1.74-1.372 2.937-1.512V6.494zm6.509 18.434s1.11.313 1.918-.394c.899-.79.804-1.898.804-1.898v-6.99s-.52-.716-1.348-.716c-.828 0-1.374.74-1.374.74v9.258zm2.722-18.35l-1.836-1.72-.886.746v6.478s.546.735 1.374.735c.828 0 1.348-.706 1.348-.706V6.578zm0 5.921s-.525.637-1.353.637c-.827 0-1.37-.642-1.37-.642v2.764s.543-.641 1.37-.641c.828 0 1.353.606 1.353.606V12.5z"/></g></svg>