<svg width="20" height="21" fill="none" xmlns="http://www.w3.org/2000/svg"><path d="M10.008 0C4.481 0 0 4.481 0 10.008c0 4.242 2.636 7.867 6.36 9.325-.091-.791-.166-2.01.032-2.875.181-.783 1.17-4.975 1.17-4.975S7.265 10.88 7.265 10c0-1.392.807-2.43 1.812-2.43.857 0 1.269.643 1.269 1.409 0 .856-.544 2.141-.832 3.336-.239.996.503 1.812 1.483 1.812 1.779 0 3.146-1.878 3.146-4.58 0-2.397-1.721-4.07-4.184-4.07-2.85 0-4.522 2.134-4.522 4.342 0 .856.329 1.779.74 2.281.083.1.092.19.067.289-.074.313-.247.997-.28 1.136-.041.182-.149.223-.338.132-1.252-.585-2.035-2.405-2.035-3.88 0-3.154 2.29-6.054 6.615-6.054 3.468 0 6.17 2.471 6.17 5.783 0 3.451-2.175 6.227-5.19 6.227-1.013 0-1.969-.527-2.29-1.153l-.626 2.38c-.222.874-.832 1.96-1.244 2.628.94.288 1.928.445 2.966.445C15.519 20.033 20 15.552 20 10.025A9.988 9.988 0 0010.008 0z" fill="#B9BDC2"/></svg>