<svg viewBox="0 0 229 37" xmlns="http://www.w3.org/2000/svg"><g fill="#84909C"><path d="M190.993 29.33c-.947-1.032-1.286-1.376-2.402-1.686v6.741l-.069.034-1.353-1.239-3.925 3.68-.068-.034v-9.25c-1.184.274-2.436.894-3.655 2.131l-.067-.034c.237-2.648 1.522-4.608 3.721-5.365v-6.706h-.71c-.981 0-1.523.516-1.996 1.444h-.102c-.101-.309-.169-.79-.169-1.581 0-1.445 1.049-2.958 2.775-2.958h.202v-3.714l-1.387-1.273-.677.688-.237-.24 3.418-3.68 3.18 2.957v3.13l.745-.825V7.594h.372v3.611l4.5-4.918 3.823 3.543v14.96l-5.919 4.54zm-7.816-3.027c-1.387.275-2.368 1.135-3.011 2.27l.034.069c.948-.826 1.827-1.204 2.977-1.48v-.859zm1.083-9.87h-1.861c-1.286 0-1.794.826-1.827 1.789l.033.034c.407-.688.813-.929 1.625-1.031h1.32v18.742l.71-.688V16.433zm0-6.19l-1.692-1.582-.542.584 1.523 1.376v3.886h.711v-4.265zm3.959 1.96l-.744.79v19.913l.744.689V12.203zm4.433-.791l-1.997-1.857-2.064 2.27V23.93c1.76.172 2.978.688 4.027 1.857l.034-.034V11.412zm-4.061 14.891v.894c1.15.275 1.624.62 2.436 1.582l.779-.62c-.813-1.03-1.625-1.65-3.215-1.856zm5.143-15.441l-2.301-2.167-.541.584 2.132 1.995v15.992l.71-.55V10.862zm14.99 4.574v9.629l-5.72 4.299-4.296-3.301-.508.584-.271-.275.609-.688v-9.423l5.99-4.368 3.992 3.165.643-.689.27.275-.71.792zm-9.102 9.904v-9.388l-.712.515v9.252l4.061 3.164.643-.482-3.993-3.06zm5.447-8.77l-2.842-2.27-.034.035v10.248l2.876 2.201V16.57zm1.083-.618l-3.147-2.477-.642.481 3.079 2.408V27.06l.71-.55V15.952zm10.421 2.166h3.485v7.36l-5.38 3.851c-.71-.825-1.725-1.41-2.977-1.41-1.015 0-1.827.345-2.91 1.273l-.169-.069 4.601-6.81h-2.842v-6.396l5.651-3.99c.677.551 1.184.86 2.064.86.677 0 1.657-.138 2.402-.756l.136.068-4.061 6.019zm-3.79 8.804c-.98 0-1.759.344-2.436.825v.07c.542-.242 1.083-.31 1.591-.31.778 0 1.996.378 2.808 1.342l.778-.585c-.642-.757-1.42-1.342-2.74-1.342zm3.621-5.778h-1.895l-3.958 5.813.034.069c.98-.723 1.928-1.204 3.078-1.204 1.015 0 2.064.481 2.707 1.307l.034-.034v-5.95zm-4.94 0v-5.536l-.71.516V21.9h2.74l.541-.756h-2.57zm7.072-6.74c-.711.516-1.117.79-2.302.79-.677 0-1.489-.309-2.131-.997l-.068.035v5.02h1.286l3.248-4.814-.033-.034zm-1.625-.31c-.609 0-1.387-.309-1.894-.997l-.846.584c.643.792 1.252 1.135 2.2 1.135.608 0 1.488-.172 2.402-.963l.033-.103c-.575.241-1.285.344-1.895.344zm.576 5.916h-2.199l-.508.722h1.996v6.672l.711-.516V20.01zm8.188 9.32l-3.113-2.477-.643.722-.27-.275.744-.825V14.438h-1.962l-.068-.069 1.184-1.788h.846v-2.304l3.586-3.886.068.069v6.121h2.707l.068.07-1.185 1.788h-1.59v10.42l1.861 1.445.711-.791.27.275-3.214 3.541zm-2.199-19.638l-.71.791v2.098h.71V9.692zm0 16.44V14.437h-.71v12.106l2.876 2.27.507-.55-2.673-2.133zM60.073 28.453l-4.703-4.06-3.586 4.06-4.873-4.196v-6.632h-.948c-.846 0-1.285.542-1.489 1.184h-.101a5.377 5.377 0 01-.169-1.285c0-.88.237-3.18 2.707-3.18v-5.82c0-1.117-1.32-1.557-1.32-3.046 0-1.928 1.828-3.823 5.178-5.008l.135.102c-1.218.71-1.861 1.387-1.861 2.842 0 2.233 2.166 1.658 2.166 5.177v1.354l3.959-4.163 4.162 4.095 3.925-4.095 3.789 3.723v12.519l-6.97 6.429zm-12.079-4.737v-7.139h-1.895c-.982 0-1.421.642-1.489 1.218l.034.034c.338-.372.677-.575 1.455-.575h1.184v6.835l4.466 3.858.507-.61-4.262-3.621zm0-15.531c0-1.387-1.218-1.861-1.218-2.74 0-1.219.473-2.234 1.218-3.181l-.068-.033c-1.015.778-1.962 2.03-1.962 3.248 0 1.218 1.32 1.793 1.32 2.876v5.989h.71V8.185zm7.14 3.384l-2.572-2.504-1.353 1.387V22.43l3.078 2.605.847-.947V11.569zm1.082 12.08V11.094L53.34 8.253l-.542.541 2.707 2.605V24.02l4.568 3.96.542-.509-4.399-3.823zm6.564-12.52l-2.131-2.03-1.218 1.252v12.045l3.316 2.91.034-.034V11.13zm1.083-.473l-2.47-2.403-.508.541 2.268 2.166v14.143l.71-.677v-13.77zM78.24 28.453l-3.214-2.91-2.876 2.91-3.519-3.113-.474.508-.27-.271.608-.643v-9.068l6.362-4.601 3.654 2.842.644-.677.27.271-.744.778v9.373l1.793 1.657.575-.608.271.236-3.08 3.316zm-8.661-3.755v-9.136l-.711.507v8.967l3.248 2.91.542-.542-3.08-2.706zm5.447-8.9l-2.774-2.165-.102.068v9.846l2.301 1.996.575-.575v-9.17zm1.083 9.204v-9.711l-2.876-2.335-.677.474 2.842 2.233v9.677l2.843 2.572.507-.542-2.639-2.368zm11.978-7.58h3.485v7.241l-5.38 3.79c-.71-.812-1.726-1.387-2.978-1.387-1.015 0-1.827.338-2.91 1.252l-.169-.068 4.602-6.7h-2.842v-6.293l5.651-3.925c.676.541 1.184.845 2.064.845.677 0 1.658-.135 2.402-.743l.136.067-4.061 5.921zm-3.79 8.662c-.981 0-1.759.339-2.436.813v.068c.541-.238 1.083-.305 1.59-.305.779 0 1.997.372 2.809 1.32l.778-.575c-.643-.745-1.421-1.32-2.74-1.32zm3.62-5.684h-1.895l-3.959 5.719.034.067c.982-.71 1.929-1.183 3.08-1.183 1.014 0 2.063.473 2.706 1.285l.035-.034V20.4zm-4.94 0v-5.447l-.71.508v5.684h2.74l.542-.744h-2.572V20.4zm7.072-6.632c-.71.508-1.116.778-2.3.778-.678 0-1.49-.304-2.132-.981l-.068.034v4.94h1.286l3.248-4.738-.034-.033zm-1.624-.305c-.608 0-1.386-.303-1.894-.98l-.847.574c.644.779 1.253 1.117 2.2 1.117.608 0 1.489-.17 2.402-.948l.033-.101c-.574.238-1.284.338-1.893.338zm.576 5.821h-2.2l-.508.71h1.997v6.564l.71-.507v-6.767zm14.244-4.839v11.707c0 3.248-2.876 5.448-6.09 6.091l-.068-.136c1.591-.778 2.505-2.368 2.505-4.06V15.933l-1.827-1.657-.711.778v9.44l1.015.914v.068l-2.74 2.977-3.147-2.875v-.136l1.218-1.286V9.201l3.586-3.824.068.034v9.068l2.944-3.18 3.079 2.774.575-.609.271.237-.678.744zm-9.474 11.064v-.067l.711-.711V8.625l-.71.745v15.022l-1.084 1.084v.067l2.64 2.369.473-.542-2.03-1.86zm6.903-10.117l-2.2-1.894-.473.507 1.963 1.76v12.181c0 .812-.17 1.657-.474 2.131l.034.034c.846-.609 1.15-1.523 1.15-2.707V15.392zm8.73 13.061l-2.91-2.673-.677.71-.271-.27.779-.846v-9.778l-1.422-1.354-.541.61-.271-.271 3.045-3.316 2.707 2.436.677-.745.305.238-.846.913v9.88l1.624 1.523.745-.779.27.271-3.214 3.451zm-1.996-3.316V15.054l-1.76-1.624-.474.542 1.523 1.455v10.049l2.707 2.436.508-.541-2.505-2.233zm1.014-14.143l-2.774-2.537 2.538-2.708 2.774 2.538-2.537 2.707zm-1.725-3.08l-.508.508 2.2 2.064.507-.575-2.199-1.996zm17.015 20.539l-2.945-2.673V15.9l-1.793-1.624-.948 1.015v9.136l1.05.98v.136l-2.775 2.91-3.147-2.876v-.102l1.219-1.285v-8.527l-1.591-1.455-.643.71-.27-.27 3.079-3.35 3.079 2.741v.677l3.214-3.418 3.011 2.707.677-.71.305.27-.813.846v9.677l1.523 1.421.745-.812.27.27-3.248 3.486zm-8.934-2.944v-.067c0 .067.677-.677.677-.677v-9.61l-1.928-1.76-.475.508 1.692 1.556v8.933l-1.049 1.083v.067l2.606 2.369.541-.575-2.064-1.826zm7.072-.27v-9.914l-2.097-1.895-.542.575 1.928 1.725v9.847l2.538 2.368.541-.575-2.368-2.131zm11.403 9.305c-1.116-1.218-1.894-1.726-2.944-1.726-1.116 0-2.402.44-3.722 1.15l-.101-.1 4.67-5.415-3.317-2.639-.643.677-.27-.236.744-.813v-9.575l6.429-4.603 3.587 2.843.609-.677.27.271-.71.778v11.573c0 1.759.981 1.692.981 3.01 0 1.523-2.2 2.944-5.583 5.482zm-4.5-9.373v-9.575l-.71.508v9.372l3.349 2.707.508-.61-3.147-2.402zm2.368 6.768c-1.116 0-2.132.338-3.079.98v.069c.61-.237 1.286-.542 2.436-.542 1.05 0 1.929.575 2.809 1.59l.677-.541c-.847-.981-1.862-1.556-2.843-1.556zm4.128-3.249c-.845-.542-1.049-1.117-1.049-2.572v-.609l-5.617 6.496.034.034c1.083-.643 2.064-1.116 3.655-1.116 1.353 0 2.267.541 3.316 1.421.643-.542 1.082-1.082 1.082-1.928 0-.677-.575-1.184-1.42-1.726zM134.2 15.798l-2.808-2.198-.068.067v10.388l2.166 1.692.71-.813v-9.136zm2.064 12.418c-.88-.677-.981-1.252-.981-2.707V15.223l-2.843-2.3-.642.44 2.774 2.199v10.421c0 1.455.068 1.861.982 2.47.812.541 1.454 1.117 1.454 1.895 0 .203-.033.541-.033.541l.033.034c.17-.17.373-.44.373-.88 0-.744-.372-1.252-1.117-1.826zm8.121.237l-3.113-2.436-.643.71-.27-.27.744-.813V13.803h-1.963l-.068-.067 1.185-1.76h.846V9.708l3.587-3.824.067.068v6.023h2.707l.068.068-1.185 1.76h-1.59v10.252l1.861 1.422.711-.779.27.27-3.214 3.485zm-2.199-19.32l-.71.778v2.064h.71V9.133zm0 16.174V13.801h-.71v11.91l2.875 2.234.508-.542-2.673-2.098zm16.478-10.523v9.473l-5.719 4.23-4.297-3.248-.508.575-.27-.271.609-.677v-9.27l5.99-4.298 3.992 3.114.642-.678.271.271-.71.778zm-9.102 9.745V15.29l-.71.508V24.9l4.06 3.113.643-.474-3.993-3.011zm5.448-8.629l-2.843-2.234-.033.034v10.084l2.876 2.165V15.9zm1.083-.609l-3.147-2.437-.643.474 3.08 2.369V26.22l.71-.541V15.291zm15.497 13.162l-2.944-2.673V15.9l-1.794-1.624-.947 1.015v9.136l1.049.98v.136l-2.775 2.91-3.147-2.876v-.102l1.219-1.285v-8.527l-1.59-1.455-.644.71-.27-.27 3.079-3.35 3.079 2.741v.677l3.214-3.418 3.012 2.707.676-.71.305.27-.812.846v9.677l1.522 1.421.745-.812.27.27-3.247 3.486zm-8.934-2.944v-.067c0 .067.677-.677.677-.677v-9.61l-1.928-1.76-.474.508 1.692 1.556v8.933l-1.049 1.083v.067l2.606 2.369.541-.575-2.065-1.826zm7.072-.27v-9.914l-2.097-1.895-.542.575 1.929 1.725v9.847l2.537 2.368.542-.575-2.369-2.131zM13.436 11.482v12.747c1.713-.93 2.912-2.55 3.495-4.376l.137.07c-.377 4.547-3.46 9.094-8.258 9.094-4.831 0-8.395-3.617-8.395-9.405 0-4.34 2.81-7.063 6.408-9.509a6.25 6.25 0 00-1.61-.207c-2.468 0-3.907 1.689-3.907 3.411H1.1c-.034-.241-.034-.482-.034-.723 0-3.066 1.61-6.787 5.517-6.787 2.501 0 4.42 2.308 7.332 2.308 1.166 0 2.604-.551 3.187-1.826h.103c-.034 2.24-.72 4.548-3.77 5.203zm1.85 13.057c-1.713 1.826-3.563 3.376-5.962 3.376-4.454 0-7.88-3.514-7.88-8.613 0-2.997 1.233-4.616 2.604-6.511H3.91c-.856.861-3.118 3.031-3.118 6.718 0 5.65 3.53 9.13 8.155 9.13 3.221 0 5.414-2.24 6.408-4.065l-.069-.035zm1.37-16.709c-.582 1.102-1.815 2.514-4.317 2.514-2.501 0-4.797-1.722-6.818-1.722-1.851 0-3.118 1.24-3.598 2.17l.034.07c.651-.655 1.645-1.31 3.255-1.31 2.673 0 4.386 1.654 7.093 1.654 2.878 0 4.18-1.895 4.42-3.341l-.069-.035zm-9.525 2.377c-1.748 1.826-3.358 3.824-3.358 7.717 0 2.136.72 4.34 2.33 5.719l.993-.517v-9.233l-.925.482L6 14.031l4.797-2.619c-1.302-.275-2.467-.86-3.666-1.205zm5.928 1.343c-.24.035-.48.035-.754.035-.48 0-.925-.035-1.37-.138v10.06l-4.49 2.446c.926.69 2.056 1.103 3.495 1.103a7.53 7.53 0 003.118-.655V11.55zm-4.934 1.758l-.652.379v9.233l.652-.345v-9.267zm19.702 1.309v11.92c0 3.307-2.913 5.547-6.168 6.201l-.068-.138c1.61-.792 2.536-2.411 2.536-4.134V16.132l-1.85-1.687-.72.792v9.612l1.028.93v.07l-2.775 3.03-3.187-2.927v-.138l1.234-1.31V9.277l3.632-3.893.068.034v9.233l2.981-3.238 3.118 2.825.582-.62.275.242-.686.757zm-9.594 11.265v-.068l.72-.724V8.69l-.72.76v15.296l-1.097 1.102v.069l2.673 2.412.48-.552-2.056-1.895zm6.99-10.301l-2.228-1.929-.48.517 1.988 1.792v12.402c0 .827-.17 1.688-.48 2.17l.035.035c.857-.62 1.165-1.55 1.165-2.756V15.58zm8.052 5.96v1.757l3.323 2.619 1.92-2.067.274.275-4.454 4.789-4.523-3.652-.685.723-.275-.275.789-.827v-8.716l6.475-4.754 3.393 5.512-6.237 4.616zm-2.536 3.033v-8.752l-.72.517v8.58l4.25 3.479.548-.586-4.078-3.238zm2.605-10.612l-.07.035v7.062l3.05-2.24-2.98-4.857zm.89-.689l-.616.448 3.015 4.857.617-.448-3.016-4.857z"/></g></svg>