<svg width="87" height="20" xmlns="http://www.w3.org/2000/svg"><g fill="#FFF" fill-rule="evenodd"><path d="M5.566 10.046c-.058.115-.086.172-.086.257 0 .085.057.17.172.17H9.64c.26 0 .288.03.288.286v2.509c0 .256-.029.285-.288.285H.344c-.144 0-.201-.057-.201-.143 0-.057.029-.114.057-.17l4.735-8.753a.627.627 0 00.086-.285c0-.086-.058-.143-.172-.143H1.003c-.258 0-.286-.029-.286-.285V1.266c0-.257.028-.286.286-.286h9.154c.143 0 .201.03.201.115a.393.393 0 01-.058.17l-4.734 8.781zM12.107 8.393V1.265c0-.227.029-.285.287-.285h3.128c.258 0 .287.058.287.285v7.07c0 1.654.746 2.338 1.922 2.338 1.177 0 1.923-.684 1.923-2.337v-7.07c0-.228.029-.286.287-.286h3.128c.258 0 .286.058.286.285v7.128c0 3.078-1.807 5.473-5.624 5.473-3.816 0-5.624-2.395-5.624-5.473M37.386 2.89c.029 0 .086 0 .115-.028.918-1.083 2.151-2.195 4.074-2.195 3.243 0 4.333 1.996 4.333 4.818v7.783c0 .228-.029.285-.287.285h-3.1c-.257 0-.286-.057-.286-.285V6.254c0-1.51-.516-2.337-1.923-2.337-1.492 0-2.467 1.055-2.467 2.794v6.557c0 .228-.028.285-.287.285h-3.099c-.258 0-.287-.057-.287-.285V6.254c0-1.51-.516-2.337-1.923-2.337-1.492 0-2.439 1.055-2.439 2.794v6.557c0 .228-.028.285-.287.285h-3.099c-.258 0-.286-.057-.286-.285V1.266c0-.228.028-.286.286-.286h3.1c.258 0 .286.058.286.286v1.14c0 .028.086.057.115.057.029 0 .086 0 .115-.029.947-1.026 1.951-1.767 3.558-1.767 2.124 0 3.1.912 3.672 2.167.03.057.087.057.116.057M55.346 3.831c-1.98 0-3.185 1.597-3.185 3.421 0 1.91 1.206 3.45 3.185 3.45 1.98 0 3.157-1.568 3.157-3.478 0-1.825-1.176-3.393-3.157-3.393zm-3.098-1.625c0 .029.086.057.115.057.028 0 .085 0 .114-.028.746-.856 2.152-1.568 3.787-1.568 3.56 0 5.97 2.993 5.97 6.557 0 3.563-2.41 6.642-5.97 6.642-1.635 0-3.04-.713-3.787-1.568-.029-.029-.086-.029-.114-.029-.03 0-.115.03-.115.058v7.212c0 .228-.029.285-.288.285h-3.098c-.259 0-.288-.057-.288-.285V1.265c0-.227.03-.285.288-.285h3.098c.26 0 .288.058.288.285v.941zM67.396 5.77c0 .257.03.285.288.285h4.705c.288 0 .317-.028.288-.285-.144-1.34-1.034-2.195-2.64-2.195-1.435 0-2.497.884-2.64 2.195m3.615 5.217c1.291 0 2.726-.4 3.559-1.026.028-.03.086-.057.172-.057s.114.085.114.285v2.48c0 .143-.086.228-.286.37-.69.485-2.497.827-3.903.827-4.218 0-6.858-2.879-6.858-6.642 0-3.706 2.583-6.557 6.313-6.557 4.018 0 6.226 2.766 6.226 6.785v.456c0 .57-.028.684-.315.684h-8.178c-.258 0-.316.029-.316.257.144 1.311 1.349 2.138 3.472 2.138M78.702 13.553c-.26 0-.288-.057-.288-.285V1.266c0-.228.029-.286.288-.286h3.04c.26 0 .288.058.288.286v1.482c0 .029.085.057.115.057.028 0 .086 0 .114-.028.604-.97 2.009-2.11 3.788-2.11.258 0 .287.056.287.285v2.993c0 .229-.029.314-.172.314-.115 0-.43-.057-.89-.057-2.18 0-3.186 1.653-3.186 4.476v4.59c0 .228-.027.285-.286.285h-3.098z"/></g></svg>